<?xml version="1.0"?>
<svg xmlns="http://www.w3.org/2000/svg" xmlns:xlink="http://www.w3.org/1999/xlink" xmlns:svgjs="http://svgjs.com/svgjs" version="1.1" width="512" height="512" x="0" y="0" viewBox="0 0 512 512" style="enable-background:new 0 0 512 512" xml:space="preserve" class=""><g><path xmlns="http://www.w3.org/2000/svg" d="m269.070312 115.046875c-7.84375 0-15.359374 6.898437-15 15 .367188 8.125 6.59375 15 15 15 7.847657 0 15.363282-6.902344 15-15-.363281-8.128906-6.589843-15-15-15zm0 0" fill="#dbad6a" data-original="#000000" style="" class=""/><path xmlns="http://www.w3.org/2000/svg" d="m220.070312 115.046875c-7.847656 0-15.363281 6.898437-15 15 .363282 8.125 6.589844 15 15 15 7.84375 0 15.363282-6.902344 15-15-.367187-8.128906-6.589843-15-15-15zm0 0" fill="#dbad6a" data-original="#000000" style="" class=""/><path xmlns="http://www.w3.org/2000/svg" d="m372.566406.00390625v54.92187475h-25.632812v-54.925781h-305.871094v141.792969c0 41.960937 34.136719 76.097656 76.097656 76.097656h153.675782c41.960937 0 76.097656-34.136719 76.097656-76.097656v-5.386719h25.621094c-.136719 30.347656-9.210938 59.640625-26.285157 84.742188l-26.160156 38.460937 45.460937 172.28125h-21.859374l-32.910157-131.613281-.148437-.546875c-5.058594-17.398438-15.390625-32.339844-29.875-43.214844-14.488282-10.875-31.722656-16.625-49.839844-16.625h-77.777344c-18.117187 0-35.351562 5.75-49.835937 16.625-11.386719 8.546875-20.191407 19.613281-25.898438 32.398437h-27.9375c-27.289062 0-49.488281 22.203126-49.488281 49.488282 0 27.289062 22.199219 49.488281 49.488281 49.488281h1.90625l-11.003906 44.003906h-39.328125v80.105469h481.4375v-511.99609375zm-55.632812 29.99609375v24.925781h-245.871094v-24.925781zm-46.097656 157.890625h-153.675782c-25.417968 0-46.097656-20.679687-46.097656-46.097656v-56.867188h245.871094v56.867188c0 25.417969-20.679688 46.097656-46.097656 46.097656zm76.097656-102.964844h25.632812v21.480469h-25.632812zm-247.371094 233.992188h184.972656l6.917969 27.65625c-6.332031-2.652344-14.34375-5.679688-28.339844-5.679688-14.882812 0-23.003906 3.425781-29.523437 6.179688-5.253906 2.21875-9.050782 3.820312-17.859375 3.820312-8.808594 0-12.601563-1.605469-17.851563-3.820312-6.523437-2.753907-14.644531-6.179688-29.523437-6.179688-14.878907 0-23 3.425781-29.519531 6.179688-5.253907 2.21875-9.046876 3.820312-17.855469 3.820312-8.808594 0-12.601563-1.605469-17.855469-3.820312-2.800781-1.183594-5.902344-2.488281-9.703125-3.597657zm53.597656-49.027344h77.777344c15.949219 0 30.738281 7.285156 40.621094 19.027344h-159.019532c9.886719-11.746094 24.671876-19.027344 40.621094-19.027344zm-103.671875 88c-10.746093 0-19.488281-8.742187-19.488281-19.484375 0-10.746094 8.742188-19.488281 19.488281-19.488281h19.160157l-9.75 38.972656zm36.640625 14.742187c1.785156.585938 3.464844 1.292969 5.328125 2.078126 6.523438 2.753906 14.640625 6.183593 29.519531 6.183593 14.882813 0 23-3.429687 29.523438-6.183593 5.25-2.21875 9.046875-3.816407 17.855469-3.816407 8.804687 0 12.601562 1.601563 17.851562 3.816407 6.523438 2.753906 14.644531 6.183593 29.523438 6.183593 14.878906 0 23-3.429687 29.523437-6.183593 5.253906-2.214844 9.046875-3.816407 17.855469-3.816407 8.8125 0 12.605469 1.601563 17.859375 3.816407 4.769531 2.015624 10.402344 4.382812 18.894531 5.511718l12.921875 51.671875h-241.472656zm368.648438 109.367188h-423.714844v-20.105469h373.453125l-51.910156-196.71875 18.46875-27.152343c20.605469-30.289063 31.492187-65.664063 31.492187-102.296876v-105.722656h52.210938zm0 0" fill="#dbad6a" data-original="#000000" style="" class=""/></g></svg>
