<?xml version="1.0"?>
<svg xmlns="http://www.w3.org/2000/svg" xmlns:xlink="http://www.w3.org/1999/xlink" xmlns:svgjs="http://svgjs.com/svgjs" version="1.1" width="512" height="512" x="0" y="0" viewBox="0 0 512 512" style="enable-background:new 0 0 512 512" xml:space="preserve" class=""><g><path xmlns="http://www.w3.org/2000/svg" d="m495.609375 4.199219c-.976563-.167969-24.269531-4.046875-54.394531-4.19531275-41.449219-.20703125-74.628906 6.58203175-98.582032 20.16015575-41.683593 23.632813-65.933593 61.125-63.472656 93.445313l-7.773437 3.648437v-107.609374h-29.816407v107.96875l-7.234374-3.273438c.203124-11.910156-3.160157-24.628906-10.058594-37.410156-10.96875-20.339844-30.042969-39.03125-53.707032-52.636719-66.957031-38.503906-150.988281-16.238281-154.535156-15.273437l-16.035156 4.375 6.085938 15.464843c.363281.921875 9.0625 22.878907 24.488281 48.753907 21.230469 35.613281 44.160156 60.519531 68.152343 74.027343 21.898438 12.324219 45.609376 18.972657 67.402344 18.972657 1.859375 0 3.703125-.050782 5.53125-.148438 24.324219-1.292969 43.335938-10.96875 53.980469-27.335938l15.929687 7.207032v65.128906c-5.867187-3.34375-12.429687-5.957031-19.609374-7.71875-20.066407-4.921875-42.722657-2.664062-63.792969 6.371094-21.070313 9.03125-38.328125 23.878906-48.601563 41.808594-11.058594 19.296874-12.882812 39.867187-5.148437 57.917968 10.554687 24.617188 36.710937 38.785156 66.980469 38.78125 5.496093 0 11.128906-.46875 16.828124-1.425781 3.28125 16.363281 10.148438 31.320313 20.003907 43.222656 13.53125 16.339844 31.089843 25.222657 49.710937 25.222657.898438 0 1.800782-.019532 2.707032-.0625 19.621093-.90625 37.332031-11.515626 49.882812-29.878907 7.574219-11.085937 12.675781-24.265625 15.042969-38.417969 5.503906.890626 10.945312 1.339844 16.257812 1.339844 30.269531 0 56.429688-14.167968 66.980469-38.78125 7.738281-18.050781 5.910156-38.621094-5.148438-57.917968-10.269531-17.929688-27.527343-32.777344-48.597656-41.808594-21.074218-9.035156-43.726562-11.296875-63.792968-6.371094-7.296876 1.789062-13.953126 4.460938-19.890626 7.882812v-65.4375l18.136719-8.515624c10.933594 14.804687 29.226563 23.480468 52.296875 24.582031 1.640625.078125 3.292969.117187 4.960938.117187 21.785156 0 45.671875-6.644531 67.839844-18.945312 67.535156-37.472656 91.847656-120.9375 92.851562-124.472656l4.53125-15.992188zm-325.535156 136.5c-17.433594.921875-38.101563-4.554688-56.722657-15.035157-33.875-19.070312-60.050781-66.15625-72.15625-91.292968 25.554688-3.917969 74.652344-7.152344 114.515626 15.769531 24.792968 14.257813 40.339843 33.027344 46.125 49.492187l-84.597657-38.285156-12.292969 27.164063 92.757813 41.976562c-7.769531 7.878907-20.183594 9.8125-27.628906 10.210938zm32.523437 131.570312c-9.425781 13.796875-15.042968 30.824219-16.292968 48.945313-24.515626 5.0625-47.359376-2.496094-54.484376-19.117188-8.683593-20.261718 8.761719-48 38.09375-60.574218 24.269532-10.40625 50.433594-7.746094 63.667969 4.957031-11.976562 4.777343-22.625 13.5625-30.984375 25.789062zm83.320313 100.617188c-7.140625 10.445312-16.601563 16.453125-26.640625 16.917969-.417969.019531-.832032.027343-1.246094.027343-21.515625 0-40.648438-25.691406-42.089844-56.96875-1.472656-31.882812 15.890625-59.671875 37.910156-60.691406.417969-.015625.832032-.027344 1.246094-.027344 21.519532 0 40.648438 25.691407 42.09375 56.972657.757813 16.472656-3.246094 32.019531-11.273437 43.769531zm57.402343-131.363281c15.15625 6.5 27.402344 16.878906 34.476563 29.226562 6.292969 10.980469 7.574219 22.113281 3.613281 31.351562-7.171875 16.726563-30.261718 24.269532-54.957031 19.011719-2.132813-20.371093-9.660156-39.195312-21.554687-53.558593-7.605469-9.1875-16.484376-16.011719-26.109376-20.230469 12.9375-13.429688 39.726563-16.433594 64.53125-5.800781zm56.835938-120.160157c-34.488281 19.136719-67.242188 18.777344-82.265625 6.996094l90.296875-42.398437-12.667969-26.984376-85.226562 40.015626c1.296875-4.730469 3.234375-8.964844 4.886719-12.070313 8.203124-15.402344 23.566406-30.28125 42.15625-40.820313 22.851562-12.953124 54.84375-16.292968 81.761718-16.292968 12.898438 0 24.632813.765625 33.636719 1.609375-9.898437 23.953125-32.550781 67.734375-72.578125 89.945312zm0 0" fill="#dbad6a" data-original="#000000" style="" class=""/></g></svg>
