<?xml version="1.0"?>
<svg xmlns="http://www.w3.org/2000/svg" xmlns:xlink="http://www.w3.org/1999/xlink" xmlns:svgjs="http://svgjs.com/svgjs" version="1.1" width="512" height="512" x="0" y="0" viewBox="0 0 512 512" style="enable-background:new 0 0 512 512" xml:space="preserve" class=""><g><path xmlns="http://www.w3.org/2000/svg" d="m512 171.21875v-171.21875h-512v512h512v-15c0-38.542969-31.355469-69.898438-69.898438-69.898438h-89.542968l30.683594-18.867187c12.304687-6.636719 19.917968-19.375 19.917968-33.390625 0-11.324219-5-21.964844-13.714844-29.199219-8.714843-7.230469-20.101562-10.183593-31.226562-8.089843l-3.691406.910156 1.082031-21.007813h-189.777344l4.078125 75.691407c.621094 11.699218 3.445313 23.136718 8.296875 33.953124h-37.71875v-255.882812h41.511719v86.511719h65v25.996093h30v-25.996093h65v-32.003907h170v-30h-170v-24.507812zm-147.925781 195.761719c3.023437-.445313 5.179687.890625 6.214843 1.75 1.070313.890625 2.871094 2.867187 2.871094 6.113281 0 2.976562-1.640625 5.679688-4.285156 7.050781l-.480469.25-16.640625 10.234375 1.164063-22.621094zm-164.207031 24.566406-2.375-44.089844h126.535156l-2.269532 44.101563c-.660156 12.457031-5.050781 24.625-12.746093 35.542968h-96.398438c-7.695312-10.921874-12.082031-23.089843-12.746093-35.554687zm-89.378907-250.328125v315.882812h331.613281c16.699219 0 31.03125 10.3125 36.972657 24.898438h-449.074219v-29.644531h45.953125v-30h-45.953125v-30.003907h45.953125v-30h-45.953125v-30h45.953125v-30h-45.953125v-30.003906h45.953125v-30h-45.953125v-212.347656h452v111.21875zm201.511719 86.511719h-100v-56.511719h100zm0 0" fill="#dbad6a" data-original="#000000" style="" class=""/><path xmlns="http://www.w3.org/2000/svg" d="m428.792969 70.6875c-7.847657 0-15.363281 6.898438-15 15 .363281 8.128906 6.589843 15 15 15 7.84375 0 15.363281-6.898438 15-15-.363281-8.125-6.589844-15-15-15zm0 0" fill="#dbad6a" data-original="#000000" style="" class=""/><path xmlns="http://www.w3.org/2000/svg" d="m361.113281 71.0625h28.5v30h-28.5zm0 0" fill="#dbad6a" data-original="#000000" style="" class=""/><path xmlns="http://www.w3.org/2000/svg" d="m301.109375 71.0625h28.5v30h-28.5zm0 0" fill="#dbad6a" data-original="#000000" style="" class=""/></g></svg>
