<?xml version="1.0"?>
<svg xmlns="http://www.w3.org/2000/svg" xmlns:xlink="http://www.w3.org/1999/xlink" xmlns:svgjs="http://svgjs.com/svgjs" version="1.1" width="512" height="512" x="0" y="0" viewBox="0 0 512 512" style="enable-background:new 0 0 512 512" xml:space="preserve" class=""><g>
<g xmlns="http://www.w3.org/2000/svg">
	<g>
		<path d="M313.257,256.936c-14.852-21.661-35.187-33.589-57.257-33.589c-22.071,0-42.405,11.929-57.258,33.588    c-13.612,19.852-21.109,45.96-21.109,73.514c0.001,27.554,7.498,53.661,21.11,73.513c14.853,21.661,35.188,33.589,57.258,33.589    c22.069,0,42.406-11.93,57.257-33.588c13.612-19.852,21.109-45.96,21.109-73.514S326.87,276.788,313.257,256.936z     M240.328,401.688c-18.056-10.664-31.347-38.981-31.348-71.239c0-32.259,13.292-60.576,31.348-71.24V401.688z M287.405,386.235    c-3.15,4.594-8.492,11.103-15.731,15.427V259.21c18.055,10.665,31.346,38.981,31.346,71.239    C303.02,351.739,297.474,371.55,287.405,386.235z" fill="#dbad6a" data-original="#000000" style="" class=""/>
	</g>
</g>
<g xmlns="http://www.w3.org/2000/svg">
	<g>
		<path d="M437.583,86.204L430.269,0H81.731l-7.314,86.204H41.796v94.041h32.9L103.968,512h304.063l29.273-331.755h32.9V86.204    H437.583z M110.53,31.347H401.47l4.655,54.857H105.876L110.53,31.347z M379.329,480.653H132.671l-26.506-300.408h299.67    L379.329,480.653z M438.857,148.898H73.143v-31.347h365.714V148.898z" fill="#dbad6a" data-original="#000000" style="" class=""/>
	</g>
</g>
<g xmlns="http://www.w3.org/2000/svg">
</g>
<g xmlns="http://www.w3.org/2000/svg">
</g>
<g xmlns="http://www.w3.org/2000/svg">
</g>
<g xmlns="http://www.w3.org/2000/svg">
</g>
<g xmlns="http://www.w3.org/2000/svg">
</g>
<g xmlns="http://www.w3.org/2000/svg">
</g>
<g xmlns="http://www.w3.org/2000/svg">
</g>
<g xmlns="http://www.w3.org/2000/svg">
</g>
<g xmlns="http://www.w3.org/2000/svg">
</g>
<g xmlns="http://www.w3.org/2000/svg">
</g>
<g xmlns="http://www.w3.org/2000/svg">
</g>
<g xmlns="http://www.w3.org/2000/svg">
</g>
<g xmlns="http://www.w3.org/2000/svg">
</g>
<g xmlns="http://www.w3.org/2000/svg">
</g>
<g xmlns="http://www.w3.org/2000/svg">
</g>
</g></svg>
