<?xml version="1.0"?>
<svg xmlns="http://www.w3.org/2000/svg" xmlns:xlink="http://www.w3.org/1999/xlink" xmlns:svgjs="http://svgjs.com/svgjs" version="1.1" width="512" height="512" x="0" y="0" viewBox="0 0 512 512" style="enable-background:new 0 0 512 512" xml:space="preserve" class=""><g><path xmlns="http://www.w3.org/2000/svg" d="m488.125 301.601562 3.035156-30.785156h19.582032v-29.855468h-21.824219l-14.386719-50.773438h-146.28125l-14.386719 50.773438h-21.828125v29.855468h19.585938l3.035156 30.785156h-44.550781v-209.910156c18.65625-6.253906 32.140625-23.886718 32.140625-44.625 0-25.953125-21.113282-47.066406-47.066406-47.066406-25.953126 0-47.066407 21.113281-47.066407 47.066406 0 20.734375 13.484375 38.371094 32.140625 44.625v209.910156h-42.910156l3.035156-30.785156h19.585938v-29.855468h-21.828125l-14.386719-50.773438h-146.28125l-14.386719 50.773438h-21.824219v29.855468h19.582032l3.035156 30.785156h-23.875l12.367188 152.847657h487.265624l12.367188-152.847657zm-137.308594-81.558593h101.144532l5.929687 20.917969h-113zm110.34375 50.773437-3.03125 30.785156h-113.476562l-3.035156-30.785156zm-223.195312-223.75c0-9.492187 7.722656-17.214844 17.214844-17.214844 9.492187 0 17.214843 7.722657 17.214843 17.214844 0 9.492188-7.722656 17.214844-17.214843 17.214844-9.492188 0-17.214844-7.722656-17.214844-17.214844zm-177.925782 172.976563h101.144532l5.925781 20.917969h-113zm110.34375 50.773437-3.035156 30.785156h-113.476562l-3.03125-30.785156zm301.714844 153.777344h-432.195312l-7.535156-93.140625h447.265624zm0 0" fill="#dbad6a" data-original="#000000" style="" class=""/><path xmlns="http://www.w3.org/2000/svg" d="m73.210938 137.03125h29.855468c0-15.070312-5.894531-23.253906-10.199218-29.230469-3.136719-4.359375-4.566407-6.351562-4.566407-11.789062 0-5.441407 1.429688-7.429688 4.566407-11.789063 4.304687-5.976562 10.199218-14.160156 10.199218-29.226562h-29.855468c0 5.4375-1.429688 7.425781-4.566407 11.785156-4.304687 5.976562-10.199219 14.160156-10.199219 29.230469 0 15.066406 5.894532 23.253906 10.195313 29.230469 3.140625 4.359374 4.570313 6.347656 4.570313 11.789062zm0 0" fill="#dbad6a" data-original="#000000" style="" class=""/><path xmlns="http://www.w3.org/2000/svg" d="m132.921875 137.03125h29.851563c0-15.070312-5.890626-23.253906-10.195313-29.230469-3.136719-4.359375-4.570313-6.351562-4.570313-11.789062 0-5.441407 1.433594-7.429688 4.570313-11.785157 4.304687-5.976562 10.195313-14.164062 10.195313-29.230468h-29.851563c0 5.4375-1.433594 7.425781-4.570313 11.785156-4.300781 5.976562-10.195312 14.160156-10.195312 29.230469 0 15.066406 5.894531 23.253906 10.195312 29.230469 3.136719 4.359374 4.570313 6.347656 4.570313 11.789062zm0 0" fill="#dbad6a" data-original="#000000" style="" class=""/><path xmlns="http://www.w3.org/2000/svg" d="m363.992188 137.03125h29.855468c0-15.070312-5.894531-23.253906-10.199218-29.230469-3.136719-4.359375-4.570313-6.351562-4.570313-11.789062 0-5.441407 1.433594-7.429688 4.570313-11.785157 4.304687-5.976562 10.199218-14.164062 10.199218-29.230468h-29.855468c0 5.4375-1.429688 7.425781-4.570313 11.785156-4.300781 5.976562-10.195313 14.160156-10.195313 29.230469 0 15.066406 5.894532 23.253906 10.195313 29.230469 3.136719 4.359374 4.570313 6.347656 4.570313 11.789062zm0 0" fill="#dbad6a" data-original="#000000" style="" class=""/><path xmlns="http://www.w3.org/2000/svg" d="m423.699219 137.03125h29.855469c0-15.070312-5.894532-23.253906-10.195313-29.230469-3.140625-4.359375-4.570313-6.351562-4.570313-11.789062 0-5.441407 1.429688-7.429688 4.566407-11.789063 4.304687-5.976562 10.199219-14.160156 10.199219-29.226562h-29.855469c0 5.4375-1.429688 7.425781-4.566407 11.785156-4.304687 5.976562-10.199218 14.160156-10.199218 29.230469 0 15.066406 5.894531 23.253906 10.199218 29.230469 3.136719 4.359374 4.566407 6.347656 4.566407 11.789062zm0 0" fill="#dbad6a" data-original="#000000" style="" class=""/></g></svg>
