<?xml version="1.0"?>
<svg xmlns="http://www.w3.org/2000/svg" xmlns:xlink="http://www.w3.org/1999/xlink" xmlns:svgjs="http://svgjs.com/svgjs" version="1.1" width="512" height="512" x="0" y="0" viewBox="0 0 512 512" style="enable-background:new 0 0 512 512" xml:space="preserve" class=""><g><g xmlns="http://www.w3.org/2000/svg"><path d="m512 241h-170.832l1.39-.716 20.247-131.605h21.195v-30h-256v30h21.195l20.247 131.605 1.39.716h-170.832v30h21.195l20.247 131.606 59.625 30.716h53.866l59.625-30.716 20.247-131.606h42.389l20.247 131.606 59.625 30.716h53.866l59.625-30.716 20.248-131.606h21.195zm-364.34 162.322h-39.32l-39.571-20.385-17.221-111.937h152.904l-17.221 111.937zm88.68-162.322-39.571-20.385-17.221-111.937h152.904l-17.221 111.937-39.571 20.385zm206.891 141.937-39.571 20.385h-39.32l-39.571-20.385-17.221-111.937h152.904z" fill="#dbad6a" data-original="#000000" style="" class=""/></g></g></svg>
