<?xml version="1.0"?>
<svg xmlns="http://www.w3.org/2000/svg" xmlns:xlink="http://www.w3.org/1999/xlink" xmlns:svgjs="http://svgjs.com/svgjs" version="1.1" width="512" height="512" x="0" y="0" viewBox="0 0 512 512" style="enable-background:new 0 0 512 512" xml:space="preserve" class=""><g><path xmlns="http://www.w3.org/2000/svg" d="m0 0v512h512v-512zm211.914062 394.023438c-.660156 12.417968-5.042968 24.550781-12.746093 35.441406h-66.585938c-7.703125-10.886719-12.085937-23.019532-12.746093-35.414063l-2.273438-44.015625h96.734375zm-122.277343-1.804688-12.90625-7.847656-.90625-.511719c-2.117188-1.09375-3.429688-3.246094-3.429688-5.621094 0-2.585937 1.441407-4.160156 2.296875-4.871093.824219-.679688 2.527344-1.734376 4.921875-1.402344l9.09375 2.257812zm28.554687 67.171875h342.011719c8.28125 0 15.414063 5.878906 16.957031 13.980469l1.65625 8.703125h-445.636718l1.660156-8.703125c1.542968-8.101563 8.675781-13.980469 16.957031-13.980469zm181.914063-65.375-2.378907-43.980469h96.734376l-2.273438 43.988282c-.664062 12.417968-5.046875 24.550781-12.75 35.441406h-66.582031c-7.703125-10.890625-12.085938-23.023438-12.75-35.449219zm123.207031-19.792969 9.09375-2.257812c2.394531-.335938 4.101562.722656 4.921875 1.402344.859375.707031 2.300781 2.285156 2.300781 4.871093 0 2.375-1.316406 4.527344-3.433594 5.621094l-.460937.242187-13.351563 8.121094zm36.890625 55.242188h-41.398437l31.769531-19.324219c11.808593-6.34375 19.117187-18.511719 19.117187-31.902344 0-10.824219-4.800781-20.992187-13.167968-27.902343-8.363282-6.910157-19.289063-9.730469-29.976563-7.734376l-1.621094.402344 1.179688-22.894531h-160.109375l4.089844 75.503906c.621093 11.660157 3.445312 23.066407 8.304687 33.851563h-44.761719c4.855469-10.785156 7.683594-22.1875 8.304688-33.84375l4.085937-75.511719h-160.105469l1.179688 22.871094-.753906-.191407-.867188-.1875c-10.683594-1.996093-21.609375.824219-29.976562 7.734376-8.367188 6.910156-13.164063 17.078124-13.164063 27.902343 0 13.390625 7.308594 25.558594 19.113281 31.902344l31.769532 19.324219h-41.417969c-7.777344 0-15.1875 1.890625-21.734375 5.269531v-302.460937l38.730469 39.804687h31.421875v57.894531h52.707031v21.039063h30.0625v-21.039063h49.871094v-57.894531h44.304687v57.894531h51.878906v21.039063h30.0625v-21.039063h50.699219v-57.894531h33.40625l38.730469-39.804687v302.464843c-6.550781-3.378906-13.957031-5.273437-21.734375-5.273437zm-329.925781-229.414063v-27.972656h72.515625v27.972656zm176.945312 0v-27.972656h72.511719v27.972656zm174.714844-170.125v59.332031l-51.464844 52.894532h-348.945312l-51.464844-52.894532v-59.332031zm0 0" fill="#dbad6a" data-original="#000000" style="" class=""/><path xmlns="http://www.w3.org/2000/svg" d="m417.566406 92.835938c7.863282 0 15.394532-6.882813 15.03125-14.964844-.367187-8.105469-6.605468-14.960938-15.03125-14.960938-7.863281 0-15.394531 6.882813-15.03125 14.960938.363282 8.109375 6.601563 14.964844 15.03125 14.964844zm0 0" fill="#dbad6a" data-original="#000000" style="" class=""/><path xmlns="http://www.w3.org/2000/svg" d="m349.742188 63.285156h28.558593v29.925782h-28.558593zm0 0" fill="#dbad6a" data-original="#000000" style="" class=""/><path xmlns="http://www.w3.org/2000/svg" d="m289.613281 63.285156h28.558594v29.925782h-28.558594zm0 0" fill="#dbad6a" data-original="#000000" style="" class=""/></g></svg>
