<?xml version="1.0"?>
<svg xmlns="http://www.w3.org/2000/svg" xmlns:xlink="http://www.w3.org/1999/xlink" xmlns:svgjs="http://svgjs.com/svgjs" version="1.1" width="512" height="512" x="0" y="0" viewBox="0 0 512 512" style="enable-background:new 0 0 512 512" xml:space="preserve" class=""><g>
<g xmlns="http://www.w3.org/2000/svg">
	<g>
		<path d="M481,180c8.284,0,15-6.716,15-15V75c0-41.355-33.645-75-75-75H91C49.645,0,16,33.645,16,75v90c0,8.284,6.716,15,15,15h15    v244.58c-17.459,6.192-30,22.865-30,42.42v30c0,8.284,6.716,15,15,15h450c8.284,0,15-6.716,15-15v-30    c0-19.555-12.541-36.228-30-42.42V180H481z M466,482H46v-15c0-8.271,6.729-15,15-15c4.274,0,384.851,0,390,0    c8.271,0,15,6.729,15,15V482z M226,270h60c8.284,0,15-6.716,15-15v-15h45c8.284,0,15-6.716,15-15s-6.716-15-15-15h-45v-30h135v242    H333.823c5.564-9.288,10.337-19.345,14.26-30H361c24.813,0,45-20.187,45-45s-20.187-45-45-45c-6.444,0-198.431,0-210,0    c-8.284,0-15,6.716-15,15c0,39.04,9.695,75.815,27.178,105H76V180h135v75C211,263.284,217.716,270,226,270z M241,240v-60h30v60    H241z M356.546,362c1.97-9.723,3.308-19.755,3.967-30H361c8.271,0,15,6.729,15,15s-6.729,15-15,15H356.546z M330.428,331.8    c-2.671,35.015-14.598,67.696-33.204,90.2h-97.448c-18.609-22.505-30.534-55.183-33.205-90.2H330.428z M46,150V75    c0-24.813,20.187-45,45-45h330c24.813,0,45,20.187,45,45v75C458.703,150,53.332,150,46,150z" fill="#dbad6a" data-original="#000000" style="" class=""/>
	</g>
</g>
<g xmlns="http://www.w3.org/2000/svg">
	<g>
		<circle cx="121" cy="105" r="15" fill="#dbad6a" data-original="#000000" style="" class=""/>
	</g>
</g>
<g xmlns="http://www.w3.org/2000/svg">
	<g>
		<circle cx="391" cy="105" r="15" fill="#dbad6a" data-original="#000000" style="" class=""/>
	</g>
</g>
<g xmlns="http://www.w3.org/2000/svg">
	<g>
		<path d="M331,90H181.02h-0.01H181c-8.284,0-15,6.716-15,15s6.716,15,15,15h150c8.284,0,15-6.716,15-15S339.284,90,331,90z" fill="#dbad6a" data-original="#000000" style="" class=""/>
	</g>
</g>
<g xmlns="http://www.w3.org/2000/svg">
</g>
<g xmlns="http://www.w3.org/2000/svg">
</g>
<g xmlns="http://www.w3.org/2000/svg">
</g>
<g xmlns="http://www.w3.org/2000/svg">
</g>
<g xmlns="http://www.w3.org/2000/svg">
</g>
<g xmlns="http://www.w3.org/2000/svg">
</g>
<g xmlns="http://www.w3.org/2000/svg">
</g>
<g xmlns="http://www.w3.org/2000/svg">
</g>
<g xmlns="http://www.w3.org/2000/svg">
</g>
<g xmlns="http://www.w3.org/2000/svg">
</g>
<g xmlns="http://www.w3.org/2000/svg">
</g>
<g xmlns="http://www.w3.org/2000/svg">
</g>
<g xmlns="http://www.w3.org/2000/svg">
</g>
<g xmlns="http://www.w3.org/2000/svg">
</g>
<g xmlns="http://www.w3.org/2000/svg">
</g>
</g></svg>
