<?xml version="1.0"?>
<svg xmlns="http://www.w3.org/2000/svg" xmlns:xlink="http://www.w3.org/1999/xlink" xmlns:svgjs="http://svgjs.com/svgjs" version="1.1" width="512" height="512" x="0" y="0" viewBox="0 0 512 512" style="enable-background:new 0 0 512 512" xml:space="preserve" class=""><g>
<g xmlns="http://www.w3.org/2000/svg">
	<g>
		<path d="M50.641,0l17.868,178.256c1.043,10.403,5.351,25.263,10.049,34.694l7.446,15.926L114.52,512h282.96l28.511-283.076    l9.769-20.579c3.374-6.784,6.465-17.451,7.213-24.922L461.359,0H50.641z M118.663,240.327h70.619l3.917,117.975h-62.654    L118.663,240.327z M369.132,480.653H142.868l-9.166-91.004h244.596L369.132,480.653z M220.646,240.327h70.707l-3.916,117.975    h-62.874L220.646,240.327z M381.455,358.302H318.8l3.917-117.975h70.619L381.455,358.302z M411.784,180.295    c-0.377,3.759-2.416,10.76-4.116,14.139l-6.907,14.546H111.306l-4.44-9.496l-0.198-0.406c-2.985-5.934-6.307-17.348-6.968-23.948    l-7.028-70.112c0.912-0.632,1.791-1.253,2.643-1.855c7.772-5.493,12.907-9.122,24.9-9.122s17.128,3.629,24.9,9.122    c9.374,6.626,21.04,14.87,42.993,14.87c21.953,0,33.619-8.245,42.993-14.87c7.771-5.493,12.906-9.122,24.899-9.122    s17.128,3.629,24.9,9.122c9.374,6.626,21.04,14.87,42.993,14.87c21.953,0,33.619-8.245,42.993-14.87    c7.772-5.494,12.907-9.122,24.9-9.122c11.993,0,17.128,3.629,24.9,9.122c0.852,0.602,1.731,1.223,2.643,1.855L411.784,180.295z     M422.843,69.948c-7.635-4.033-17.337-7.254-31.057-7.254c-21.953,0-33.619,8.245-42.993,14.87    c-7.772,5.494-12.907,9.122-24.9,9.122c-11.993,0-17.128-3.629-24.9-9.122c-9.374-6.625-21.039-14.87-42.992-14.87    s-33.619,8.245-42.993,14.87c-7.772,5.494-12.907,9.122-24.9,9.122c-11.993,0-17.128-3.629-24.9-9.122    c-9.374-6.625-21.039-14.87-42.992-14.87c-13.719,0-23.422,3.221-31.057,7.254l-3.869-38.601h341.425L422.843,69.948z" fill="#dbad6a" data-original="#000000" style="" class=""/>
	</g>
</g>
<g xmlns="http://www.w3.org/2000/svg">
</g>
<g xmlns="http://www.w3.org/2000/svg">
</g>
<g xmlns="http://www.w3.org/2000/svg">
</g>
<g xmlns="http://www.w3.org/2000/svg">
</g>
<g xmlns="http://www.w3.org/2000/svg">
</g>
<g xmlns="http://www.w3.org/2000/svg">
</g>
<g xmlns="http://www.w3.org/2000/svg">
</g>
<g xmlns="http://www.w3.org/2000/svg">
</g>
<g xmlns="http://www.w3.org/2000/svg">
</g>
<g xmlns="http://www.w3.org/2000/svg">
</g>
<g xmlns="http://www.w3.org/2000/svg">
</g>
<g xmlns="http://www.w3.org/2000/svg">
</g>
<g xmlns="http://www.w3.org/2000/svg">
</g>
<g xmlns="http://www.w3.org/2000/svg">
</g>
<g xmlns="http://www.w3.org/2000/svg">
</g>
</g></svg>
