<?xml version="1.0"?>
<svg xmlns="http://www.w3.org/2000/svg" xmlns:xlink="http://www.w3.org/1999/xlink" xmlns:svgjs="http://svgjs.com/svgjs" version="1.1" width="512" height="512" x="0" y="0" viewBox="0 0 512 512" style="enable-background:new 0 0 512 512" xml:space="preserve" class=""><g>
<g xmlns="http://www.w3.org/2000/svg">
	<g>
		<polygon points="345.278,253.9 329.605,226.753 271.673,260.201 271.673,193.306 240.327,193.306 240.327,260.201     182.395,226.753 166.722,253.9 224.653,287.347 166.722,320.794 182.395,347.941 240.327,314.493 240.327,381.388     271.673,381.388 271.673,314.493 329.605,347.941 345.278,320.794 287.347,287.347   " fill="#dbad6a" data-original="#000000" style=""/>
	</g>
</g>
<g xmlns="http://www.w3.org/2000/svg">
	<g>
		<path d="M49.756,0l45.176,512h322.135L462.244,0H49.756z M388.366,480.653h-264.73L90.609,106.356    c1.617-1.08,3.143-2.155,4.594-3.179c7.797-5.501,12.947-9.137,24.959-9.137c12.002,0,17.138,3.63,24.916,9.124    c9.376,6.625,21.045,14.869,43.003,14.869c21.957,0,33.627-8.244,43.003-14.869c7.777-5.494,12.914-9.124,24.916-9.124    c12.001,0,17.138,3.63,24.916,9.124c9.377,6.625,21.045,14.869,43.003,14.869c21.957,0,33.627-8.244,43.003-14.869    c7.777-5.494,12.915-9.124,24.916-9.124c12.012,0,17.162,3.635,24.959,9.137c1.451,1.024,2.977,2.098,4.594,3.179L388.366,480.653    z M391.837,62.694c-21.959,0-33.627,8.244-43.003,14.869c-7.776,5.494-12.914,9.124-24.916,9.124    c-12.002,0-17.138-3.63-24.916-9.124c-9.376-6.625-21.044-14.869-43.003-14.869c-21.957,0-33.627,8.244-43.003,14.869    c-7.776,5.494-12.914,9.124-24.916,9.124s-17.138-3.63-24.916-9.124c-9.376-6.625-21.045-14.869-43.003-14.869    c-14.707,0-24.802,3.7-32.689,8.133l-3.484-39.48h344.018l-3.484,39.48C416.638,66.394,406.544,62.694,391.837,62.694z" fill="#dbad6a" data-original="#000000" style=""/>
	</g>
</g>
<g xmlns="http://www.w3.org/2000/svg">
</g>
<g xmlns="http://www.w3.org/2000/svg">
</g>
<g xmlns="http://www.w3.org/2000/svg">
</g>
<g xmlns="http://www.w3.org/2000/svg">
</g>
<g xmlns="http://www.w3.org/2000/svg">
</g>
<g xmlns="http://www.w3.org/2000/svg">
</g>
<g xmlns="http://www.w3.org/2000/svg">
</g>
<g xmlns="http://www.w3.org/2000/svg">
</g>
<g xmlns="http://www.w3.org/2000/svg">
</g>
<g xmlns="http://www.w3.org/2000/svg">
</g>
<g xmlns="http://www.w3.org/2000/svg">
</g>
<g xmlns="http://www.w3.org/2000/svg">
</g>
<g xmlns="http://www.w3.org/2000/svg">
</g>
<g xmlns="http://www.w3.org/2000/svg">
</g>
<g xmlns="http://www.w3.org/2000/svg">
</g>
</g></svg>
