<?xml version="1.0"?>
<svg xmlns="http://www.w3.org/2000/svg" xmlns:xlink="http://www.w3.org/1999/xlink" xmlns:svgjs="http://svgjs.com/svgjs" version="1.1" width="512" height="512" x="0" y="0" viewBox="0 0 511 512" style="enable-background:new 0 0 512 512" xml:space="preserve" class=""><g><path xmlns="http://www.w3.org/2000/svg" d="m465.136719 72.121094c-4.984375 0-122.839844.597656-185.242188 51.398437-26.226562 21.351563-45.683593 48.152344-54.78125 75.460938-8.210937 24.632812-7.363281 47.433593 2.183594 65.566406-16.867187 15.542969-32.304687 34.6875-44.648437 64.621094-3.320313-6.945313-6.816407-13.503907-10.433594-19.921875 12.3125-11.828125 21.222656-28.648438 25.875-49.398438 6.773437-30.199218 3.71875-65.691406-8.601563-99.941406-30.144531-83.816406-138.167969-147.992188-142.753906-150.679688l-15.714844-9.226562-6.042969 17.191406c-1.785156 5.078125-43.375 125.320313-14.023437 206.925782 12.316406 34.25 32.566406 63.558593 57.023437 82.523437 18.574219 14.410156 38.105469 21.816406 56.777344 21.8125 7.441406 0 14.746094-1.191406 21.804688-3.570313 21.125 37.796876 36.527344 79.289063 36.527344 187.117188h30.015624c0-62.902344-5.273437-105.21875-13.746093-137.246094 11.460937-45.582031 27.75-69.03125 47.824219-87.6875 12.417968 8.691406 28.144531 13.246094 46.132812 13.246094 4.410156 0 8.960938-.273438 13.625-.824219 28.585938-3.375 58.777344-16.992187 85.003906-38.34375 64.089844-52.175781 86.988282-166.304687 87.929688-171.140625l3.492187-17.886718zm-425.9375 141.835937c-10.480469-29.136719-11.464844-70.402343-2.851563-119.335937 3.457032-19.636719 7.847656-36.941406 11.292969-49.105469 30.085937 20.472656 93.574219 68.863281 113.601563 124.550781 10.414062 28.953125 13.097656 58.507813 7.554687 83.210938-2.613281 11.65625-6.886719 21.378906-12.527344 28.785156-15.925781-27.066406-32.054687-57.167969-45.691406-111.722656l-29.121094 7.277344c14.730469 58.941406 32.789063 92.253906 49.328125 120.328124-1.964844.300782-3.957031.457032-5.976562.453126-31.066406 0-67.832032-35.015626-85.609375-84.441407zm333.789062 23.910157c-21.863281 17.796874-46.570312 29.09375-69.570312 31.808593-12.121094 1.429688-22.75.316407-31.308594-3.117187.84375-.648438 1.6875-1.292969 2.539063-1.949219 24.546874-18.828125 52.371093-40.171875 80.964843-82.1875l-24.816406-16.886719c-25.878906 38.023438-50.554687 56.953125-74.417969 75.257813-1.660156 1.273437-3.3125 2.539062-4.960937 3.8125-8.3125-26.644531 10.792969-67.980469 47.429687-97.804688 40.410156-32.902343 112.636719-41.570312 147.046875-43.847656-8.851562 32.957031-31.355469 101.085937-72.90625 134.914063zm0 0" fill="#dbad6a" data-original="#000000" style="" class=""/></g></svg>
