<?xml version="1.0"?>
<svg xmlns="http://www.w3.org/2000/svg" xmlns:xlink="http://www.w3.org/1999/xlink" xmlns:svgjs="http://svgjs.com/svgjs" version="1.1" width="512" height="512" x="0" y="0" viewBox="0 0 512 512" style="enable-background:new 0 0 512 512" xml:space="preserve" class=""><g><g xmlns="http://www.w3.org/2000/svg"><path d="m408.649 204.155-53.48-31.458c20.737-6.474 35.831-25.856 35.831-48.697 0-28.121-22.879-51-51-51h-25.356l8.017-36.576c4.103-18.718-10.15-36.424-29.304-36.424h-74.713c-19.162 0-33.406 17.714-29.305 36.424l8.826 40.268c-3.159 2.75-5.165 6.791-5.165 11.308v63.421l-89.648 52.734c-36.393 21.408-54.394 65.046-42.901 106.276l46.985 168.646c5.402 19.385 23.227 32.923 43.349 32.923h210.432c20.122 0 37.947-13.538 43.349-32.923l46.985-168.646c11.474-41.166-6.453-84.835-42.902-106.276zm-185.648-59.155v-42h66v42zm138-21c0 11.579-9.421 21-21 21h-21v-42h21c11.579 0 21 9.421 21 21zm-67.638-94.035c0 .1-9.431 43.035-9.431 43.035h-55.863l-9.425-43zm129.289 272.416-46.985 168.645c-1.801 6.462-7.743 10.975-14.45 10.975h-210.432c-6.707 0-12.649-4.513-14.45-10.974l-46.986-168.646c-7.825-28.093 4.442-57.797 29.214-72.368l93.522-55.013h87.832l93.522 55.013c24.735 14.55 37.049 44.235 29.213 72.368z" fill="#dbad6a" data-original="#000000" style="" class=""/><path d="m348.949 365.729c12.275-18.591 20.133-43.114 15.182-64.512-1.21-5.228-5.12-9.411-10.254-10.971-10.913-3.314-23.877-3.345-37.234-.268-6.547-30.489-26.357-57.303-53.815-71.336-4.287-2.191-9.365-2.191-13.652 0-27.458 14.033-47.269 40.847-53.815 71.335-13.356-3.074-26.322-3.046-37.234.269-5.134 1.56-9.044 5.743-10.254 10.971-4.951 21.397 2.906 45.921 15.182 64.512-6.29 4.962-11.7 11.269-16.034 18.756-2.69 4.648-2.69 10.381 0 15.028 11.579 20.01 30.89 31.487 52.98 31.487 11.458 0 27.119-3.188 41-9.324v18.324c0 8.284 6.716 15 15 15s15-6.716 15-15v-18.324c13.881 6.136 29.542 9.324 41 9.324 22.09 0 41.4-11.477 52.982-31.486 2.69-4.647 2.69-10.38 0-15.028-4.334-7.488-9.744-13.795-16.034-18.757zm-27.516 18.754c4.987 1.636 8.896 4.442 11.906 7.506-4.632 4.709-11.544 9.011-21.339 9.011-13.693 0-33.76-7.149-41-14.067v-58.933c0-8.284-6.716-15-15-15s-15 6.716-15 15v58.933c-7.24 6.918-27.307 14.067-41 14.067-9.795 0-16.707-4.302-21.339-9.011 3.011-3.063 6.919-5.87 11.906-7.506 10.624-3.483 13.845-16.994 5.903-24.89-11.202-11.14-19-28.135-19.987-41.915 7.674.028 16.62 2.1 25.465 6.026 9.777 4.343 20.846-2.681 21.083-13.374.552-24.685 13.258-47.81 32.969-60.968 19.711 13.158 32.417 36.283 32.969 60.968.237 10.694 11.309 17.718 21.083 13.374 8.846-3.928 17.791-5.998 25.465-6.026-.987 13.78-8.785 30.775-19.987 41.915-7.928 7.883-4.738 21.402 5.903 24.89z" fill="#dbad6a" data-original="#000000" style="" class=""/></g></g></svg>
