<?xml version="1.0"?>
<svg xmlns="http://www.w3.org/2000/svg" xmlns:xlink="http://www.w3.org/1999/xlink" xmlns:svgjs="http://svgjs.com/svgjs" version="1.1" width="512" height="512" x="0" y="0" viewBox="0 0 512 512" style="enable-background:new 0 0 512 512" xml:space="preserve" class=""><g>
<g xmlns="http://www.w3.org/2000/svg">
	<g>
		<path d="M488.029,294.907c-24.633-24.634-63.027-30.282-98.805-15.574c-4.225-5.745-8.849-11.249-13.848-16.486    c-4.53-37.046-36.163-65.839-74.412-65.839h-2.58c1.665-4.694,2.58-9.741,2.58-14.998c0-24.81-20.185-44.995-44.995-44.995    s-44.995,20.185-44.995,44.995c0,5.257,0.915,10.304,2.58,14.998h-2.58c-38.374,0-70.089,28.979-74.458,66.2    c-8.375,8.786-15.674,18.344-21.831,28.509c-14.295-29.4-44.467-49.714-79.296-49.714H14.998C6.715,242.002,0,248.717,0,257    v44.995c0,8.283,6.715,14.998,14.998,14.998c9.172,0,18.517,7.569,18.517,14.998v31.871c0,43.862,32.254,80.719,74.962,87.119    c6.947,13.83,15.875,26.733,26.635,38.307c13.399,14.414,33.051,22.68,53.917,22.68H322.96c33,0,53.421-17.535,71.399-45.1    c30.87,1.526,60.942-11.97,83.066-34.094C519.052,391.147,523.711,330.587,488.029,294.907z M63.511,363.861V331.99    c0-19.166-14.493-36.45-33.515-42.607v-17.386h5.393c32.046,0,58.118,26.072,58.118,58.118c0,21.934-0.009,15.82,0.032,17.811    c-3.905,22.053-3.414,45.243,2.072,67.945C76.499,406.335,63.511,386.623,63.511,363.861z M255.969,167.01    c8.27,0,14.998,6.728,14.998,14.998c0,8.27-6.728,14.998-14.998,14.998s-14.998-6.728-14.998-14.998    C240.971,173.738,247.699,167.01,255.969,167.01z M210.974,227.003h89.989c19.554,0,36.235,12.538,42.425,29.996H168.55    C174.74,239.54,191.421,227.003,210.974,227.003z M354.684,469.051c-7.662,8.212-19.226,12.921-31.725,12.921h-133.93    c-12.56,0-24.205-4.777-31.948-13.107c-23.276-25.039-36.096-57.67-36.096-91.88c0-33.486,12.161-65.206,34.368-89.989h201.53    C403.644,339.411,401.796,418.56,354.684,469.051z M456.214,411.565c-13.141,13.141-29.645,21.699-46.111,24.447    c16.156-42.219,14.148-90.278-5.183-130.567c23.247-8.059,46.901-4.325,61.9,10.672    C490.607,339.904,485.948,381.83,456.214,411.565z" fill="#dbad6a" data-original="#000000" style="" class=""/>
	</g>
</g>
<g xmlns="http://www.w3.org/2000/svg">
	<g>
		<path d="M198.981,123.835c-2.109-1.89-10.004-10.634-10.004-18.821c0-7.851,7.455-16.477,10.004-18.821    c2.051-1.832,19.993-18.558,19.993-41.172S201.032,5.681,198.981,3.85c-6.122-5.507-15.628-5.009-21.179,1.172    c-5.521,6.166-4.994,15.657,1.172,21.179c2.109,1.889,10.004,10.633,10.004,18.821c0,7.85-7.455,16.477-10.004,18.821    c-2.051,1.831-19.993,18.557-19.993,41.172c0,22.615,17.942,39.341,19.993,41.172c6.147,5.516,15.652,5.011,21.179-1.172    C205.674,138.849,205.147,129.358,198.981,123.835z" fill="#dbad6a" data-original="#000000" style="" class=""/>
	</g>
</g>
<g xmlns="http://www.w3.org/2000/svg">
	<g>
		<path d="M332.965,123.835c-2.109-1.89-10.004-10.634-10.004-18.821c0-7.851,7.455-16.477,10.004-18.821    c2.051-1.832,19.993-18.558,19.993-41.172S335.015,5.681,332.965,3.85c-6.122-5.507-15.628-5.009-21.179,1.172    c-5.521,6.166-4.994,15.657,1.172,21.179c2.109,1.889,10.004,10.633,10.004,18.821c0,7.85-7.455,16.477-10.004,18.821    c-2.051,1.831-19.993,18.557-19.993,41.172c0,22.615,17.942,39.341,19.993,41.172c6.147,5.516,15.652,5.011,21.179-1.172    C339.658,138.849,339.131,129.358,332.965,123.835z" fill="#dbad6a" data-original="#000000" style="" class=""/>
	</g>
</g>
<g xmlns="http://www.w3.org/2000/svg">
</g>
<g xmlns="http://www.w3.org/2000/svg">
</g>
<g xmlns="http://www.w3.org/2000/svg">
</g>
<g xmlns="http://www.w3.org/2000/svg">
</g>
<g xmlns="http://www.w3.org/2000/svg">
</g>
<g xmlns="http://www.w3.org/2000/svg">
</g>
<g xmlns="http://www.w3.org/2000/svg">
</g>
<g xmlns="http://www.w3.org/2000/svg">
</g>
<g xmlns="http://www.w3.org/2000/svg">
</g>
<g xmlns="http://www.w3.org/2000/svg">
</g>
<g xmlns="http://www.w3.org/2000/svg">
</g>
<g xmlns="http://www.w3.org/2000/svg">
</g>
<g xmlns="http://www.w3.org/2000/svg">
</g>
<g xmlns="http://www.w3.org/2000/svg">
</g>
<g xmlns="http://www.w3.org/2000/svg">
</g>
</g></svg>
