<?xml version="1.0"?>
<svg xmlns="http://www.w3.org/2000/svg" xmlns:xlink="http://www.w3.org/1999/xlink" xmlns:svgjs="http://svgjs.com/svgjs" version="1.1" width="512" height="512" x="0" y="0" viewBox="0 0 512 512" style="enable-background:new 0 0 512 512" xml:space="preserve" class=""><g>
<g xmlns="http://www.w3.org/2000/svg">
	<g>
		<path d="M466.425,339.125c-1.25-47.584-9.833-94.702-25.512-140.048c-5.13-14.836-8.615-26.952-10.967-38.131    c-8.201-38.963-8.888-79.765-8.89-114.951V14.999C421.055,6.716,414.339,0,406.056,0h-0.001H106.074    C97.79,0,91.075,6.716,91.075,14.999v34.102c0,34.961,0,74.586-8.732,111.509c-2.376,10.045-5.609,20.814-10.175,33.89    c-16.161,46.282-25.091,94.156-26.542,142.291c-1.491,49.448,5.053,98.135,19.126,143.916    c5.664,18.425,23.315,31.29,42.928,31.289c0.006,0,0.012,0,0.019,0c50.544-0.021,244.772-0.019,296.89,0.003    c0.007,0,0.013,0,0.02,0c19.677,0,37.338-12.926,42.95-31.44C460.902,436.539,467.729,388.767,466.425,339.125z M121.073,29.998    h270.183c0.001,19.081,0.001,12.354,0.001,30.998c-4.302,0-266.412,0-270.184,0C121.073,49.896,121.073,40.991,121.073,29.998z     M271.064,90.995v53.778c-4.489-4.489-7.739-8.786-14.999-8.786c-7.268,0-10.556,4.344-14.999,8.786V90.995H271.064z     M418.85,471.857c-1.812,5.974-7.668,10.144-14.242,10.144c-0.002,0-0.005,0-0.007,0c-52.796-0.022-245.803-0.025-296.916-0.003    c-0.002,0-0.004,0-0.006,0c-6.564,0-12.425-4.155-14.254-10.105c-2.023-6.58-3.852-13.227-5.531-19.921h336.405    C422.645,458.65,420.842,465.285,418.85,471.857z M430.55,421.974H81.565c-12.195-71.145-5.814-146.745,18.923-217.586    c4.917-14.078,8.427-25.795,11.047-36.875c6.044-25.555,8.253-51.572,9.064-76.519h90.469v89.99    c0,13.303,16.163,20.048,25.604,10.605l19.393-19.392l19.393,19.392c9.39,9.392,25.604,2.799,25.604-10.605v-89.99h90.763    c1.025,24.661,3.383,50.556,8.766,76.13c2.617,12.436,6.421,25.704,11.971,41.755C436.382,277.769,442.44,351.801,430.55,421.974z    " fill="#dbad6a" data-original="#000000" style="" class=""/>
	</g>
</g>
<g xmlns="http://www.w3.org/2000/svg">
	<g>
		<path d="M345.886,238.451c-1.075-6.267-5.983-11.173-12.248-12.248c-29.455-5.052-54.98,3.738-71.788,20.412    c-2.056,2.034-3.976,4.192-5.764,6.463c-1.785-2.266-3.7-4.419-5.751-6.447c-16.755-16.624-42.244-25.497-71.803-20.428    c-6.266,1.075-11.173,5.982-12.248,12.248c-5.05,29.45,3.738,54.982,20.413,71.787c13.189,13.332,32.22,21.722,54.368,21.983    v43.757c0,8.284,6.716,14.999,14.999,14.999c8.284,0,14.999-6.716,14.999-14.999v-43.756c20.212-0.228,39.994-7.411,54.395-21.968    C342.042,293.54,350.966,268.071,345.886,238.451z M242.063,302.252c-12.506,0-25.099-4.075-34.056-13.126    c-8.951-9.022-13.198-21.514-13.185-34.385c0.019-0.001,0.038-0.001,0.057-0.001c12.808,0,25.285,4.214,34.345,13.201    c9.1,9.001,13.17,21.723,13.109,34.31C242.243,302.251,242.153,302.252,242.063,302.252z M304.148,289.141    c-8.386,8.476-19.954,12.583-31.822,13.059c0.012-4.763-0.37-9.059-0.967-12.951c2.13-8.948,6.134-15.912,11.603-21.323    c9.028-8.957,21.505-13.186,34.33-13.186c0.019,0,0.038,0,0.057,0C317.362,267.621,313.114,280.104,304.148,289.141z" fill="#dbad6a" data-original="#000000" style="" class=""/>
	</g>
</g>
<g xmlns="http://www.w3.org/2000/svg">
</g>
<g xmlns="http://www.w3.org/2000/svg">
</g>
<g xmlns="http://www.w3.org/2000/svg">
</g>
<g xmlns="http://www.w3.org/2000/svg">
</g>
<g xmlns="http://www.w3.org/2000/svg">
</g>
<g xmlns="http://www.w3.org/2000/svg">
</g>
<g xmlns="http://www.w3.org/2000/svg">
</g>
<g xmlns="http://www.w3.org/2000/svg">
</g>
<g xmlns="http://www.w3.org/2000/svg">
</g>
<g xmlns="http://www.w3.org/2000/svg">
</g>
<g xmlns="http://www.w3.org/2000/svg">
</g>
<g xmlns="http://www.w3.org/2000/svg">
</g>
<g xmlns="http://www.w3.org/2000/svg">
</g>
<g xmlns="http://www.w3.org/2000/svg">
</g>
<g xmlns="http://www.w3.org/2000/svg">
</g>
</g></svg>
