<?xml version="1.0"?>
<svg xmlns="http://www.w3.org/2000/svg" xmlns:xlink="http://www.w3.org/1999/xlink" xmlns:svgjs="http://svgjs.com/svgjs" version="1.1" width="512" height="512" x="0" y="0" viewBox="0 0 512 512" style="enable-background:new 0 0 512 512" xml:space="preserve" class=""><g>
<g xmlns="http://www.w3.org/2000/svg">
	<g>
		<path d="M491.606,365.394L436,309.787V142.5C436,63.925,372.075,0,293.5,0c-76.06,0-138.39,59.898-142.303,135H106    c-3.803,0-7.634,1.477-10.516,4.312c-0.029,0.029-0.062,0.053-0.09,0.082l-75,75C17.58,217.207,16,221.022,16,225v242    c0,24.813,20.187,45,45,45h210c24.813,0,45-20.187,45-45V225c0-3.978-1.58-7.793-4.394-10.606l-75-75    c-0.029-0.029-0.061-0.053-0.09-0.081C233.635,136.476,229.801,135,226,135h-44.744C185.129,76.451,233.989,30,293.5,30    C355.532,30,406,80.467,406,142.5v167.287l-55.606,55.606C347.58,368.207,346,372.022,346,376v121c0,8.284,6.716,15,15,15h120    c8.284,0,15-6.716,15-15V376C496,372.022,494.42,368.207,491.606,365.394z M286,467c0,8.271-6.729,15-15,15H61    c-8.271,0-15-6.729-15-15V301h240V467z M209.416,216.708l20.693-41.386L286,231.213V271H46v-39.787l55.891-55.891l20.693,41.386    C125.124,221.79,130.318,225,136,225h60C201.682,225,206.876,221.79,209.416,216.708z M201.729,165l-15,30H145.27l-15-30H201.729z     M466,482h-90v-99.787l45-45l45,45V482z" fill="#dbad6a" data-original="#000000" style="" class=""/>
	</g>
</g>
<g xmlns="http://www.w3.org/2000/svg">
	<g>
		<path d="M255.826,343.465c-1.073-6.266-5.981-11.174-12.248-12.249c-29.399-5.042-54.947,3.701-71.791,20.413    c-2.056,2.034-3.976,4.192-5.765,6.463c-1.785-2.266-3.7-4.419-5.75-6.447c-16.718-16.586-42.187-25.509-71.808-20.429    c-6.267,1.075-11.175,5.983-12.249,12.249c-5.04,29.398,3.7,54.948,20.413,71.791c14.451,14.609,34.555,22.007,55.377,22.007    c4.286,0,8.95-0.319,14.015-1.075c5.067,0.757,9.729,1.075,14.016,1.075c20.466,0,40.717-7.187,55.361-21.991    C252.02,398.519,260.894,373.028,255.826,343.465z M151.998,407.27c-12.504,0-25.101-4.074-34.057-13.128    c-9.093-9.163-13.198-21.752-13.187-34.387c0.019,0,0.038,0,0.057,0c12.78,0,25.27,4.196,34.347,13.202    c9.084,8.985,13.171,21.698,13.11,34.312C152.178,407.269,152.088,407.27,151.998,407.27z M214.086,394.158    c-8.403,8.494-19.983,12.584-31.823,13.059c0.012-4.763-0.37-9.06-0.967-12.951c5.448-22.876,24.712-34.66,45.993-34.511    C227.3,372.608,223.071,385.102,214.086,394.158z" fill="#dbad6a" data-original="#000000" style="" class=""/>
	</g>
</g>
<g xmlns="http://www.w3.org/2000/svg">
</g>
<g xmlns="http://www.w3.org/2000/svg">
</g>
<g xmlns="http://www.w3.org/2000/svg">
</g>
<g xmlns="http://www.w3.org/2000/svg">
</g>
<g xmlns="http://www.w3.org/2000/svg">
</g>
<g xmlns="http://www.w3.org/2000/svg">
</g>
<g xmlns="http://www.w3.org/2000/svg">
</g>
<g xmlns="http://www.w3.org/2000/svg">
</g>
<g xmlns="http://www.w3.org/2000/svg">
</g>
<g xmlns="http://www.w3.org/2000/svg">
</g>
<g xmlns="http://www.w3.org/2000/svg">
</g>
<g xmlns="http://www.w3.org/2000/svg">
</g>
<g xmlns="http://www.w3.org/2000/svg">
</g>
<g xmlns="http://www.w3.org/2000/svg">
</g>
<g xmlns="http://www.w3.org/2000/svg">
</g>
</g></svg>
