<?xml version="1.0"?>
<svg xmlns="http://www.w3.org/2000/svg" xmlns:xlink="http://www.w3.org/1999/xlink" xmlns:svgjs="http://svgjs.com/svgjs" version="1.1" width="512" height="512" x="0" y="0" viewBox="0 0 512 512" style="enable-background:new 0 0 512 512" xml:space="preserve" class=""><g><g xmlns="http://www.w3.org/2000/svg"><path d="m106.15 323.063h220.99c19.299 0 35-15.701 35-35v-193.057c0-19.299-15.701-35-35-35h-220.99c-19.299 0-35 15.701-35 35v193.057c0 19.298 15.701 35 35 35zm-5-228.057c0-2.757 2.243-5 5-5h220.99c2.757 0 5 2.243 5 5v81.528h-36.495v-41.201c0-8.284-6.716-15-15-15s-15 6.716-15 15v41.201h-34v-41.201c0-8.284-6.716-15-15-15s-15 6.716-15 15v41.201h-34v-41.201c0-8.284-6.716-15-15-15s-15 6.716-15 15v41.201h-36.495zm0 111.528h230.99v81.528c0 2.757-2.243 5-5 5h-31.495v-41.812c0-8.284-6.716-15-15-15s-15 6.716-15 15v41.813h-34v-41.813c0-8.284-6.716-15-15-15s-15 6.716-15 15v41.813h-34v-41.813c0-8.284-6.716-15-15-15s-15 6.716-15 15v41.813h-31.495c-2.757 0-5-2.243-5-5z" fill="#dbad6a" data-original="#000000" style="" class=""/><path d="m405.81 353.5h-299.62c-19.299 0-35 15.701-35 35v27.5c0 19.299 15.701 35 35 35h299.62c19.299 0 35-15.701 35-35v-27.5c0-19.299-15.701-35-35-35zm5 62.5c0 2.757-2.243 5-5 5h-299.62c-2.757 0-5-2.243-5-5v-27.5c0-2.757 2.243-5 5-5h299.62c2.757 0 5 2.243 5 5z" fill="#dbad6a" data-original="#000000" style="" class=""/><path d="m416 107.5c8.284 0 15-6.716 15-15v-12.5c0-8.284-6.716-15-15-15s-15 6.716-15 15v12.5c0 8.284 6.716 15 15 15z" fill="#dbad6a" data-original="#000000" style="" class=""/><path d="m416 182.5c8.284 0 15-6.716 15-15v-12.5c0-8.284-6.716-15-15-15s-15 6.716-15 15v12.5c0 8.284 6.716 15 15 15z" fill="#dbad6a" data-original="#000000" style="" class=""/><path d="m416 257.5c8.284 0 15-6.716 15-15v-12.5c0-8.284-6.716-15-15-15s-15 6.716-15 15v12.5c0 8.284 6.716 15 15 15z" fill="#dbad6a" data-original="#000000" style="" class=""/><path d="m487 0h-462c-13.785 0-25 11.215-25 25v462c0 13.785 11.215 25 25 25h462c13.785 0 25-11.215 25-25v-462c0-13.785-11.215-25-25-25zm-5 482h-452v-452h452z" fill="#dbad6a" data-original="#000000" style="" class=""/></g></g></svg>
