<?xml version="1.0"?>
<svg xmlns="http://www.w3.org/2000/svg" xmlns:xlink="http://www.w3.org/1999/xlink" xmlns:svgjs="http://svgjs.com/svgjs" version="1.1" width="512" height="512" x="0" y="0" viewBox="0 0 512 512" style="enable-background:new 0 0 512 512" xml:space="preserve" class=""><g><path xmlns="http://www.w3.org/2000/svg" d="m0 512h512v-512h-512zm482-30h-452v-151h302v-301h150zm-180-331v60h-31v-30h-30v30h-30v-30h-30v30h-30v-30h-30v30h-30v-30h-30v30h-31v-60zm0 90v60h-31v-30h-30v30h-30v-30h-30v30h-30v-30h-30v30h-30v-30h-30v30h-31v-60zm0-211v91h-31v-30h-30v30h-30v-30h-30v30h-30v-30h-30v30h-30v-30h-30v30h-31v-91zm0 0" fill="#dbad6a" data-original="#000000" style="" class=""/><path xmlns="http://www.w3.org/2000/svg" d="m91 452h180v-90h-180zm30-60h120v30h-120zm0 0" fill="#dbad6a" data-original="#000000" style="" class=""/><path xmlns="http://www.w3.org/2000/svg" d="m362 181h30v30h-30zm0 0" fill="#dbad6a" data-original="#000000" style="" class=""/><path xmlns="http://www.w3.org/2000/svg" d="m422 181h30v30h-30zm0 0" fill="#dbad6a" data-original="#000000" style="" class=""/><path xmlns="http://www.w3.org/2000/svg" d="m362 241h30v30h-30zm0 0" fill="#dbad6a" data-original="#000000" style="" class=""/><path xmlns="http://www.w3.org/2000/svg" d="m422 241h30v30h-30zm0 0" fill="#dbad6a" data-original="#000000" style="" class=""/><path xmlns="http://www.w3.org/2000/svg" d="m362 301h30v30h-30zm0 0" fill="#dbad6a" data-original="#000000" style="" class=""/><path xmlns="http://www.w3.org/2000/svg" d="m422 301h30v30h-30zm0 0" fill="#dbad6a" data-original="#000000" style="" class=""/><path xmlns="http://www.w3.org/2000/svg" d="m452 61h-90v90h90zm-30 60h-30v-30h30zm0 0" fill="#dbad6a" data-original="#000000" style="" class=""/></g></svg>
