<?xml version="1.0"?>
<svg xmlns="http://www.w3.org/2000/svg" xmlns:xlink="http://www.w3.org/1999/xlink" xmlns:svgjs="http://svgjs.com/svgjs" version="1.1" width="512" height="512" x="0" y="0" viewBox="0 0 512 512" style="enable-background:new 0 0 512 512" xml:space="preserve" class=""><g><g xmlns="http://www.w3.org/2000/svg"><path d="m0 0v512h512v-512zm482 482h-452v-452h452z" fill="#dbad6a" data-original="#000000" style="" class=""/><path d="m452 60h-90v392h90zm-30 30v212h-30v-212zm-30 332v-90h30v90z" fill="#dbad6a" data-original="#000000" style="" class=""/><path d="m332 60h-272v392h272zm-30 242h-50.667v-212h50.667zm-131.333 0v-212h50.667v212zm-30-212v212h-50.667v-212zm101.333 332h-92v-30h92zm30 0v-60h-152v60h-30v-90h212v90z" fill="#dbad6a" data-original="#000000" style="" class=""/></g></g></svg>
